<svg id="Capa_1" xmlns="http://www.w3.org/2000/svg" version="1.1" viewBox="0 0 110 135">
  <!-- Generator: Adobe Illustrator 29.2.0, SVG Export Plug-In . SVG Version: 2.1.0 Build 108)  -->
  <path d="M13.2,57.8c0-.4.2-.8.5-1.1.3-.3.7-.5,1.1-.5h34.2c.8,0,1.5.7,1.5,1.6s-.7,1.5-1.5,1.6H14.8c-.4,0-.8-.2-1.1-.5-.3-.3-.5-.7-.5-1.1h0ZM14.8,70.6h27.8c.8,0,1.5-.7,1.5-1.6s-.7-1.5-1.5-1.6H14.8c-.4,0-.8.1-1.1.4-.3.3-.5.7-.5,1.1s.2.8.5,1.1c.3.3.7.5,1.1.4h0ZM14.8,81.8h27.2c.8,0,1.5-.7,1.5-1.6s-.7-1.5-1.5-1.6H14.8c-.4,0-.8.1-1.1.4-.3.3-.5.7-.5,1.1s.2.8.5,1.1c.3.3.7.5,1.1.4h0ZM14.8,92.9h32c.8,0,1.5-.7,1.5-1.6s-.7-1.5-1.5-1.6H14.8c-.4,0-.8.1-1.1.4-.3.3-.5.7-.5,1.1s.2.8.5,1.1c.3.3.7.5,1.1.4h0ZM63.2,101H14.8c-.4,0-.8.1-1.1.4-.3.3-.5.7-.5,1.1s.2.8.5,1.1c.3.3.7.5,1.1.4h48.4c.4,0,.8-.1,1.1-.4.3-.3.5-.7.5-1.1s-.2-.8-.5-1.1c-.3-.3-.7-.5-1.1-.4ZM29.4,42.1c0-2.6,2-4.8,4.6-5,.2-2.6,2.4-4.6,5-4.6s4.8,2,5,4.6c2.6.2,4.6,2.4,4.6,5s-2,4.8-4.6,5c-.2,2.6-2.4,4.6-5,4.6s-4.8-2-5-4.6c-2.6-.2-4.6-2.4-4.6-5ZM32.5,42.1c0,1.1.8,1.9,1.9,1.9h2.7v2.7h0c0,1,.8,1.9,1.9,1.9s1.9-.8,1.9-1.9v-2.7h2.7c1,0,1.8-.9,1.8-1.9s-.8-1.8-1.8-1.9h-2.7v-2.7c0-1-.9-1.9-1.9-1.9s-1.9.9-1.9,1.9v2.7h-2.7c-1,0-1.9.8-1.9,1.9h0ZM75.7,67.2c-.3-.3-.7-.5-1.1-.5s-.8.2-1.1.5c-.3.3-.5.7-.5,1.1s.2.8.5,1.1c3.7,3.8,3.7,9.8,0,13.6-.3.3-.5.7-.5,1.1s.2.8.5,1.1.7.5,1.1.5.8-.2,1.1-.5c5-5,5-13,0-18h0ZM105.8,110.3c0,2-1.2,3.9-3.1,4.6-1.9.8-4,.3-5.5-1.1l-12.7-12.7c-1.5-1.5-1.9-3.9-.9-5.8l-4.2-4.2c-2.1,1.8-4.5,3.1-7.1,3.9v15c0,2.9-2.4,5.3-5.3,5.3H11.1c-2.9,0-5.3-2.4-5.3-5.3V28c0-2.9,2.4-5.3,5.3-5.3h13.6c.7-2.2,2.7-3.7,5-3.7h4.3,0c.7-2.2,2.7-3.7,5.1-3.7s4.4,1.5,5.1,3.7h4.3c2.3,0,4.3,1.5,5,3.7h13.6c2.9,0,5.3,2.4,5.3,5.3v29.3c6.4,1.9,11.4,6.9,13.2,13.2,1.9,6.4.4,13.3-3.9,18.3l4.2,4.2c1.9-.9,4.2-.6,5.8.9l12.7,12.7c.9.9,1.5,2.2,1.5,3.6h0ZM27.5,26c0,.3.2.5.5.5h22c.3,0,.5-.2.5-.5v-1.7c0-1.2-1-2.2-2.2-2.2h-7.1v-1.6c0-.6-.2-1.1-.6-1.6-.4-.4-1-.7-1.5-.7s-1.1.2-1.5.7c-.4.4-.6,1-.6,1.6v1.6h-7.2c-1.2,0-2.2,1-2.2,2.2v1.7ZM69.1,95.6c-.8.1-1.6.2-2.5.2-5.4,0-10.6-2.2-14.3-6.2s-5.6-9.3-5.3-14.7c.3-5.4,2.9-10.4,7.1-13.9,4.2-3.5,9.6-5,15-4.3v-28.7c0-1.2-1-2.2-2.2-2.2h-13.3c0,2.1-1.6,3.7-3.6,3.7h-22c-2,0-3.6-1.6-3.6-3.6h0c0-.1-13.3-.1-13.3-.1-1.2,0-2.2,1-2.2,2.2v82c0,1.2,1,2.2,2.2,2.2h55.9c1.2,0,2.2-1,2.2-2.2v-14.4ZM78.3,64.5c-3.1-3.1-7.3-4.8-11.7-4.8s-8.6,1.7-11.7,4.8c-3.1,3.1-4.8,7.3-4.8,11.7s1.7,8.6,4.8,11.7c3.1,3.1,7.3,4.8,11.7,4.8s8.6-1.7,11.7-4.8c3.1-3.1,4.9-7.3,4.9-11.7s-1.8-8.6-4.9-11.7ZM102.1,108.9l-12.7-12.7c-.8-.6-1.9-.6-2.6.1-.7.7-.7,1.8-.1,2.6l12.7,12.7c.4.4.8.6,1.4.6.5,0,1-.2,1.4-.6.4-.4.6-.9.6-1.4,0-.5-.2-1-.6-1.4h0Z"/>
</svg>
