<?xml version="1.0" encoding="UTF-8"?>
<svg id="Capa_1" xmlns="http://www.w3.org/2000/svg" version="1.1" xmlns:xlink="http://www.w3.org/1999/xlink" viewBox="0 0 100 125">
  <!-- Generator: Adobe Illustrator 29.2.0, SVG Export Plug-In . SVG Version: 2.1.0 Build 108)  -->
  <path d="M82.5,33.4h-17.9c-1.4,0-2.7.5-3.8,1.4-1.3-.9-2.8-1.4-4.5-1.4h-25.9c-10.1,0-18.4,8.3-18.4,18.4v15c0,2.4.5,4.8,1.6,6.9-1,2.1-1.6,4.4-1.6,6.8,0,8.6,7,15.6,15.6,15.6s15.6-7,15.6-15.6-.2-2.5-.5-3.7l13.7-7.1h0c2.7-1.4,5.6-4.2,7.1-7.5,1,.4,2.1.7,3.1.7,1.5,0,3-.4,4.3-1.2l17.2-10.8c2.4-1.9,3.9-4.8,3.9-7.9,0-5.2-4.2-9.5-9.5-9.5ZM41.2,80.5c0,7.5-6.1,13.7-13.7,13.7s-13.7-6.1-13.7-13.7.3-3.2.8-4.7c.3-.7.6-1.4,1-2.1,2.4-4.1,6.8-6.8,11.8-6.8s10.9,3.7,12.8,8.9c.2.6.4,1.3.6,1.9.2.9.3,1.9.3,2.8ZM55.5,67.9l-13.4,6.9c-2.3-5.8-7.9-10-14.6-10s-10,2.7-12.8,6.7c-.6-1.5-.9-3.1-.9-4.8v-15c0-9.1,7.4-16.4,16.4-16.4h25.9c1.5,0,2.9.5,4,1.4,1.3,1.1,2.2,2.8,2.2,4.7v16.5c0,4.3-3.6,8.2-6.9,9.9ZM86.9,49.2l-17.1,10.8c-1.7,1.1-3.9,1.2-5.7.4.2-.7.3-1.5.3-2.3v-16.5c0-2.1-.8-4-2.1-5.4.7-.5,1.5-.7,2.3-.7h17.9c4.1,0,7.5,3.4,7.5,7.5,0,2.5-1.2,4.9-3.1,6.3Z"/>
  <path d="M27.2,39.2c-.4.1-8.7,3.6-8.7,12.3s.4,1,1,1,1-.4,1-1c0-7.4,7.2-10.4,7.5-10.5.5-.2.7-.8.5-1.3-.2-.5-.8-.7-1.3-.5Z"/>
  <path d="M35.8,76.3h-4v-4c0-.5-.4-1-1-1h-6.3c-.5,0-1,.4-1,1v4h-4c-.4,0-.8.3-.9.7,0,0,0,.2,0,.3v6.3c0,.5.4,1,1,1h4v4c0,.5.4,1,1,1h6.3c.5,0,1-.4,1-1v-4h4c.5,0,1-.4,1-1v-6.3c0-.5-.4-1-1-1ZM34.8,80.8v1.9h-5v5h-4.4v-5h-5v-4.4h5v-5h4.4v5h5v2.5h0Z"/>
</svg>
