<svg id="Capa_1" xmlns="http://www.w3.org/2000/svg" version="1.1" xmlns:serif="http://www.serif.com/" xmlns:xlink="http://www.w3.org/1999/xlink" viewBox="0 0 134 167.5">
  <!-- Generator: Adobe Illustrator 29.2.0, SVG Export Plug-In . SVG Version: 2.1.0 Build 108)  -->
  <defs>
    <style>
      .st0 {
        fill-rule: evenodd;
      }
    </style>
  </defs>
  <path class="st0" d="M67,16.6c-12.9,0-20.8,7.8-25.4,15.7-4.3,7.3-5.8,14.6-5.9,15.2h0c0,.4,0,.6,0,.9,0,2.5,1.1,11,12.3,31.4,1,1.9,2.1,3.7,3.2,5.6-14.8,18.6-31.3,32.8-31.3,32.8-.6.5-.9,1.2-.9,1.9,0,.7.2,1.5.7,2l15.2,15.9c1,1,2.6,1.1,3.7.2,0,0,14-12.2,28.5-30.2,14.5,18,28.5,30.2,28.5,30.2,1.1,1,2.7.9,3.7-.2l15.2-15.9c.5-.5.8-1.3.7-2s-.4-1.4-.9-1.9c0,0-16.5-14.2-31.3-32.8,1.1-1.8,2.2-3.7,3.2-5.6,13.6-24.8,12.2-32.1,12.2-32.2,0,0,0,0,0-.1-.2-1-3.1-15-12.8-23.7-4.6-4.1-10.6-7.1-18.6-7.1ZM83,42.5c-1.5,3.7-5.2,11.8-14,26.3l-.2.3-.3.5-.3.6-.3.5-.3.5-.3.6-.3.6c-.1.2-.2.4-.3.5l-.2.3-.2.3-.2.3-.2.3h0c-2.8,4.6-6,8.9-9.2,13.1,0,0,0,0,0,.1-12.2,15.6-25.8,28.4-31,33,0,0,11.4,11.9,11.4,11.9,4.5-4.1,16.2-15.4,27.9-30.3,0,0,0,0,.1-.1,4.3-5.5,8.5-11.4,12.4-17.7,0,0,0,0,0,0,1.4-2.3,2.7-4.5,4-6.9,9.4-17.2,11.2-25.8,11.5-28.1-1.3-1.3-4.6-4.2-9.8-6.5h0ZM79.9,90.2c11.5,14.3,23.8,25.8,28.7,30.1l-11.4,11.9c-4.3-4-15.4-14.6-26.7-28.8,3.2-4.2,6.4-8.7,9.4-13.3,0,0,0,0,0,0ZM63.8,67v.2c-.1,0-1.9,2.9-1.9,2.9l-.2.3-.2.3-.2.2-.2.3v.2c-.1,0-.3.3-.3.3-2,3-4,6-6.2,8.9-.7-1.2-1.4-2.4-2-3.5-9.3-17-11.2-25.7-11.5-28.1,3-2.9,6.4-4.9,9.9-6.3,1.5,3.6,5,11.2,12.8,24.2ZM67,39.3c-4.1,0-7.8.6-10.9,1.4,1.2,3,4.2,9.6,10.9,21,6.7-11.4,9.7-18,10.9-21-3.2-.9-6.8-1.4-11-1.4ZM67,22.1c-10.5,0-16.9,6.5-20.8,13-1,1.8-1.9,3.5-2.6,5.1,5.1-3.1,12.9-6.3,23.4-6.3s18.3,3.2,23.4,6.4c-1.7-4-4.4-8.8-8.5-12.5-3.7-3.3-8.6-5.7-14.9-5.7Z"/>
</svg>
