<svg id="Capa_1" xmlns="http://www.w3.org/2000/svg" version="1.1" viewBox="0 0 110 135">
  <!-- Generator: Adobe Illustrator 29.2.0, SVG Export Plug-In . SVG Version: 2.1.0 Build 108)  -->
  <path d="M30.7,20.4c-2.8,0-5.1,2.3-5.1,5.1v8.3c0,2.6,1.9,4.7,4.4,5.1v3.3c0,2-.9,3.8-2.5,4.9l-5.3,3.8c-2.6,1.9-4.2,4.9-4.2,8.2v41.5c0,4.3,3.6,7.9,7.9,7.9h18.5c.4,0,.8-.2,1-.4.3-.3.4-.6.4-1,0-.4-.2-.8-.4-1-.3-.3-.7-.4-1-.4h-18.5c-2.8,0-5-2.2-5-5v-5.3h24.1c.8,0,1.5-.7,1.5-1.5,0-.8-.7-1.5-1.5-1.5h-24.1v-31.2h61v9.2h0c0,.4.2.8.4,1,.3.3.7.4,1,.4s.1,0,.1,0c0,0,0,0,0,0,0,0,0,0,0,0,0,0,0,0,.1,0,0,0,0,0,0,0,0,0,0,0,.1,0,0,0,0,0,0,0,0,0,0,0,.1,0,0,0,0,0,0,0,0,0,0,0,.1,0,0,0,0,0,0,0,0,0,0,0,.1,0,0,0,0,0,0,0,0,0,0,0,.1-.1,0,0,0,0,0-.1,0,0,0,0,0,0,0,0,0,0,0,0,0,0,0,0,0-.1,0,0,0,0,0,0,0,0,0,0,0-.1,0,0,0,0,0,0,0,0,0,0,0-.1h0c0,0,0-.1,0-.2h0c0,0,0-.1,0-.2v-11.3c0-3.2-1.6-6.3-4.2-8.2l-5.3-3.8c-1.6-1.1-2.5-3-2.5-4.9v-3.3c2.4-.4,4.4-2.5,4.4-5.1v-8.3c0-2.8-2.3-5.1-5.1-5.1H30.7ZM30.7,23.4h41.3c1.2,0,2.2.9,2.2,2.2v8.3c0,1.2-1,2.2-2.2,2.2h-3.8v-4.4h0c0-.4-.2-.8-.4-1s-.7-.4-1-.4c-.4,0-.8.2-1,.4-.3.3-.4.7-.4,1v4.4h-7.3v-4.5h0c0-.4-.2-.8-.4-1-.3-.3-.7-.4-1-.4-.4,0-.8.2-1,.4-.3.3-.4.7-.4,1v4.4h-7.3v-4.4h0c0-.4-.2-.8-.4-1s-.7-.4-1-.4c-.4,0-.8.2-1,.4-.3.3-.4.7-.4,1v4.4h-7.3v-4.4c0-.4-.2-.8-.4-1-.3-.3-.7-.4-1-.4-.4,0-.8.2-1,.4-.3.3-.4.7-.4,1v4.4h-3.8c-1.2,0-2.2-.9-2.2-2.2v-8.3c0-1.2,1-2.2,2.2-2.2h0ZM32.9,39h37v3.3c0,2.9,1.4,5.6,3.8,7.3l5.3,3.8c1.6,1.2,2.7,2.9,2.9,4.9H20.9c.2-2,1.3-3.7,2.9-4.9l5.3-3.8c2.4-1.7,3.8-4.4,3.8-7.3v-3.3ZM75.9,72.3c-3.5,0-7,1.3-9.7,4l-7.5,7.5s0,0,0,0c0,0,0,0,0,0l-7.5,7.4c-5.4,5.3-5.4,14,0,19.3,5.4,5.3,14,5.3,19.4,0l1.6-1.6c2.6,3.4,6.6,5.6,11.2,5.6,7.7,0,14-6.2,14-13.9h0s0,0,0-.1c0-5.5-3.3-10.3-8-12.6.6-4.2-.6-8.6-3.9-11.8-2.7-2.7-6.2-4-9.7-4h0ZM75.9,75.2c2.8,0,5.5,1.1,7.6,3.2,2.4,2.4,3.4,5.6,3.1,8.7-1-.2-2.1-.4-3.2-.4-5.3,0-10,3-12.3,7.4l-9.2-9.2,6.5-6.5c2.1-2.1,4.9-3.2,7.6-3.2h0ZM59.7,86.9l10.1,10.1c-.3,1.2-.5,2.4-.5,3.6,0,2,.4,4,1.2,5.7l-2.2,2.1c-4.2,4.2-11,4.2-15.2,0-4.2-4.2-4.2-10.9,0-15.1l6.5-6.5ZM83.4,89.6c1.4,0,2.7.2,3.9.7h0s0,0,.1,0c0,0,0,0,0,0,3.7,1.4,6.4,4.8,6.9,8.8h-21.9c0-.7.2-1.4.5-2,0,0,0-.1,0-.2,1.5-4.3,5.6-7.3,10.4-7.3h0ZM72.4,102.1h21.9c-.7,5.4-5.3,9.5-11,9.5s-7.7-2.2-9.6-5.5c0-.1-.1-.3-.2-.4-.6-1.1-1-2.3-1.2-3.6h0Z"/>
</svg>
