<svg id="Capa_1" xmlns="http://www.w3.org/2000/svg" version="1.1" xmlns:graph="http://ns.adobe.com/Graphs/1.0/" xmlns:i="http://ns.adobe.com/AdobeIllustrator/10.0/" xmlns:x="http://ns.adobe.com/Extensibility/1.0/" xmlns:xlink="http://www.w3.org/1999/xlink" viewBox="0 0 100 125">
  <!-- Generator: Adobe Illustrator 29.2.0, SVG Export Plug-In . SVG Version: 2.1.0 Build 108)  -->
  <path d="M78,89.9s0,0,0-.1c0,0,0-.1,0-.2,0,0,0,0,0-.1,0-.1,0-.2,0-.3v-53.4c0-.1,0-.2,0-.3,0,0,0,0,0-.1,0,0,0-.1,0-.2,0,0,0,0,0-.1,0,0,0,0,0-.1,0,0-.1-.1-.2-.2,0,0,0,0,0,0l-4-4c-.8-.8-2.2-.8-2.9,0l-3,3-3-3c-.8-.8-2.2-.8-2.9,0l-2.9,2.9-2.9-2.9c-.8-.8-2.2-.8-2.9,0l-3,3-3-3c-.8-.8-2.2-.8-2.9,0l-2.9,2.9-2.9-2.9c-.8-.8-2.2-.8-2.9,0l-3,3-3-3c-.8-.8-2.2-.8-2.9,0l-4,4s0,0-.1.1c0,0,0,0,0,0,0,0,0,.1,0,.2,0,0,0,0,0,.1,0,0,0,.1,0,.2,0,0,0,0,0,.1,0,.1,0,.2,0,.3v53.4c0,.1,0,.2,0,.3,0,0,0,0,0,.1,0,0,0,.1,0,.2,0,0,0,0,0,.1,0,0,0,.1,0,.2,0,0,0,0,0,0,0,0,0,0,.1.1l4,4c.4.4.9.6,1.5.6s1.1-.2,1.5-.6l3-3,3,3c.4.4.9.6,1.5.6s1.1-.2,1.5-.6l2.9-2.9,2.9,2.9c.4.4.9.6,1.5.6s1.1-.2,1.5-.6l3-3,3,3c.4.4.9.6,1.5.6s1.1-.2,1.5-.6l2.9-2.9,2.9,2.9c.4.4.9.6,1.5.6s1.1-.2,1.5-.6l3-3,3,3c.4.4.9.6,1.5.6s1.1-.2,1.5-.6l4-4s0,0,0,0c0,0,.1-.1.2-.2,0,0,0,0,0-.1ZM72.3,91.4l-3.3-3.3c-.3-.3-.8-.5-1.3-.4-.4,0-.9,0-1.3.4l-3.3,3.3-3.3-3.3s0,0,0,0c0,0-.1-.1-.2-.2-.5-.3-1.1-.4-1.6-.1-.1,0-.3.2-.4.3l-3.3,3.3-3.3-3.3c-.3-.3-.8-.5-1.3-.4-.4,0-.9,0-1.3.4l-3.3,3.3-3.3-3.3c-.6-.6-1.6-.6-2.2,0l-3.3,3.3-3.3-3.3c-.3-.3-.8-.5-1.3-.4-.4,0-.9,0-1.3.4l-3.3,3.3-2.8-2.8v-52.1l2.8-2.8,3.3,3.3c.3.3.7.5,1.1.5s.1,0,.2,0c.4,0,.9,0,1.3-.4l3.3-3.3,3.3,3.3c.3.3.7.5,1.1.5s.8-.2,1.1-.5l3.3-3.3,3.3,3.3c.3.3.7.5,1.1.5s.1,0,.2,0c.4,0,.9,0,1.3-.4l3.3-3.3,3.3,3.3c.2.2.4.3.6.4.5.2,1,.1,1.5-.2,0,0,.1-.1.2-.2,0,0,0,0,0,0l3.3-3.3,3.3,3.3c.3.3.7.5,1.1.5s.1,0,.2,0c.4,0,.9,0,1.3-.4l3.3-3.3,2.8,2.8v52.1l-2.8,2.8Z"/>
  <path d="M49.8,41.5c-11.6,0-21,9.4-21,21s9.4,21,21,21,21-9.4,21-21-9.4-21-21-21ZM49.8,80.4c-9.9,0-17.9-8-17.9-17.9s8-17.9,17.9-17.9,17.9,8,17.9,17.9-8,17.9-17.9,17.9Z"/>
  <path d="M49.8,74.3c-6.5,0-11.9-5.3-11.9-11.9s-.7-1.6-1.6-1.6-1.6.7-1.6,1.6c0,8.3,6.7,15,15,15s1.6-.7,1.6-1.6-.7-1.6-1.6-1.6Z"/>
</svg>
