<svg id="Capa_1" xmlns="http://www.w3.org/2000/svg" version="1.1" xmlns:xlink="http://www.w3.org/1999/xlink" viewBox="0 0 48 60">
  <!-- Generator: Adobe Illustrator 29.2.0, SVG Export Plug-In . SVG Version: 2.1.0 Build 108)  -->
  <path d="M26,8c.6,0,1,.4,1,1s-.4.9-.9,1h-.1s-1,0-1,0v4c3.4.2,6.5,1.6,8.9,3.7l2.9-2.9-.7-.7c-.4-.4-.4-1,0-1.4.4-.4.9-.4,1.3,0h0c0,0,2.8,2.9,2.8,2.9.4.4.4,1,0,1.4-.4.4-.9.4-1.3,0h0c0,0-.7-.8-.7-.8l-2.9,2.9c2.1,2.4,3.5,5.5,3.7,8.9h4v-1c0-.6.4-1,1-1s.9.4,1,.9h0v4.1c0,.6-.4,1-1,1s-.9-.4-1-.9h0v-1.1h-4c-.2,3.4-1.6,6.5-3.7,8.9l2.9,2.9.7-.7c.4-.4,1-.4,1.4,0,.4.4.4.9,0,1.3h0c0,0-2.8,2.9-2.8,2.9-.4.4-1,.4-1.4,0-.4-.4-.4-.9,0-1.3h0c0,0,.7-.8.7-.8l-2.9-2.9c-2.4,2.1-5.5,3.5-8.9,3.7v4s1,0,1,0h.1c.5,0,.9.5.9,1s-.4.9-.9,1h-.1s-4,0-4,0h-.1c-.5,0-.9-.5-.9-1s.4-.9.9-1h.1s1,0,1,0v-4c-3.4-.2-6.5-1.6-8.9-3.7l-2.9,2.9.7.7h0c.3.5.3,1.1,0,1.4-.4.4-.9.4-1.3,0h0c0,0-2.8-2.9-2.8-2.9h0c-.3-.5-.3-1.1,0-1.4.4-.4.9-.4,1.3,0h0c0,0,.7.8.7.8l2.9-2.9c-2.1-2.4-3.5-5.5-3.7-8.9h-4s0,1,0,1h0c0,.6-.5,1-1,1s-.9-.4-1-.9h0v-4.1h0c0-.6.5-1,1-1s.9.4,1,.9h0c0,.1,0,1.1,0,1.1h4c.2-3.4,1.6-6.5,3.7-8.9l-2.9-2.9-.7.7h0c-.4.4-1,.4-1.3,0-.4-.4-.4-.9,0-1.3h0c0,0,2.8-2.9,2.8-2.9h0c.4-.4,1-.4,1.3,0,.4.4.4.9,0,1.3h0c0,0-.7.8-.7.8l2.9,2.9c2.4-2.1,5.5-3.5,8.9-3.7v-4h-1c-.6,0-1-.4-1-1s.4-.9.9-1h.1s4,0,4,0ZM24,16c-7.2,0-13,5.8-13,13s5.8,13,13,13,13-5.8,13-13-5.8-13-13-13Z"/>
  <path d="M26,8c.6,0,1,.4,1,1s-.4.9-.9,1h-.1s-1,0-1,0v4c3.4.2,6.5,1.6,8.9,3.7l2.9-2.9-.7-.7c-.4-.4-.4-1,0-1.4.4-.4.9-.4,1.3,0h0c0,0,2.8,2.9,2.8,2.9.4.4.4,1,0,1.4-.4.4-.9.4-1.3,0h0c0,0-.7-.8-.7-.8l-2.9,2.9c2.1,2.4,3.5,5.5,3.7,8.9h4v-1c0-.6.4-1,1-1s.9.4,1,.9h0v4.1c0,.6-.4,1-1,1s-.9-.4-1-.9h0v-1.1h-4c-.2,3.4-1.6,6.5-3.7,8.9l2.9,2.9.7-.7c.4-.4,1-.4,1.4,0,.4.4.4.9,0,1.3h0c0,0-2.8,2.9-2.8,2.9-.4.4-1,.4-1.4,0-.4-.4-.4-.9,0-1.3h0c0,0,.7-.8.7-.8l-2.9-2.9c-2.4,2.1-5.5,3.5-8.9,3.7v4s1,0,1,0h.1c.5,0,.9.5.9,1s-.4.9-.9,1h-.1s-4,0-4,0h-.1c-.5,0-.9-.5-.9-1s.4-.9.9-1h.1s1,0,1,0v-4c-3.4-.2-6.5-1.6-8.9-3.7l-2.9,2.9.7.7h0c.3.5.3,1.1,0,1.4-.4.4-.9.4-1.3,0h0c0,0-2.8-2.9-2.8-2.9h0c-.3-.5-.3-1.1,0-1.4.4-.4.9-.4,1.3,0h0c0,0,.7.8.7.8l2.9-2.9c-2.1-2.4-3.5-5.5-3.7-8.9h-4s0,1,0,1h0c0,.6-.5,1-1,1s-.9-.4-1-.9h0v-4.1h0c0-.6.5-1,1-1s.9.4,1,.9h0c0,.1,0,1.1,0,1.1h4c.2-3.4,1.6-6.5,3.7-8.9l-2.9-2.9-.7.7h0c-.4.4-1,.4-1.3,0-.4-.4-.4-.9,0-1.3h0c0,0,2.8-2.9,2.8-2.9h0c.4-.4,1-.4,1.3,0,.4.4.4.9,0,1.3h0c0,0-.7.8-.7.8l2.9,2.9c2.4-2.1,5.5-3.5,8.9-3.7v-4h-1c-.6,0-1-.4-1-1s.4-.9.9-1h.1s4,0,4,0ZM24,16c-7.2,0-13,5.8-13,13s5.8,13,13,13,13-5.8,13-13-5.8-13-13-13Z"/>
</svg>
